<svg width="20" height="20" viewBox="0 0 20 20" fill="none" xmlns="http://www.w3.org/2000/svg">
  <path
    d="M14.1666 11.175L10.5916 7.64167C10.5141 7.56356 10.4219 7.50157 10.3204 7.45926C10.2188 7.41695 10.1099 7.39517 9.99992 7.39517C9.88991 7.39517 9.78098 7.41695 9.67944 7.45926C9.57789 7.50157 9.48572 7.56356 9.40825 7.64167L5.87492 11.175C5.79681 11.2525 5.73481 11.3446 5.69251 11.4462C5.6502 11.5477 5.62842 11.6567 5.62842 11.7667C5.62842 11.8767 5.6502 11.9856 5.69251 12.0872C5.73481 12.1887 5.79681 12.2809 5.87492 12.3583C6.03105 12.5135 6.24226 12.6007 6.46242 12.6007C6.68257 12.6007 6.89378 12.5135 7.04992 12.3583L9.99992 9.40834L12.9499 12.3583C13.1051 12.5123 13.3146 12.5991 13.5332 12.6C13.6429 12.6006 13.7516 12.5796 13.8532 12.5381C13.9547 12.4967 14.047 12.4356 14.1249 12.3583C14.2058 12.2837 14.2711 12.1937 14.317 12.0936C14.363 11.9936 14.3886 11.8854 14.3925 11.7754C14.3963 11.6653 14.3784 11.5556 14.3396 11.4526C14.3008 11.3495 14.242 11.2552 14.1666 11.175Z"
    fill="black" fill-opacity="0.3" />
</svg>