<svg width="20" height="20" viewBox="0 0 20 20" fill="none" xmlns="http://www.w3.org/2000/svg">
<path fill-rule="evenodd" clip-rule="evenodd" d="M18.3334 10.0001C18.3334 5.39841 14.6018 1.66675 10.0001 1.66675C5.39841 1.66675 1.66675 5.39841 1.66675 10.0001C1.66675 14.6018 5.39841 18.3334 10.0001 18.3334C10.049 18.3334 10.0977 18.3324 10.1466 18.3315V11.8444H8.3562V9.75785H10.1466V8.22243C10.1466 6.44173 11.2336 5.47254 12.8221 5.47254C13.5827 5.47254 14.2366 5.52926 14.4272 5.55456V7.41562H13.3318C12.4677 7.41562 12.3003 7.82634 12.3003 8.42894V9.75785H14.3666L14.0973 11.8444H12.3003V18.0115C15.7835 17.0129 18.3334 13.8038 18.3334 10.0001Z" fill="white"/>
</svg>
