<svg width="50" height="50" viewBox="0 0 50 50" fill="none" xmlns="http://www.w3.org/2000/svg">
<g clip-path="url(#clip0_13643_1957)">
<circle cx="25" cy="25" r="25" fill="" fill-opacity="0.2"/>
<path fill-rule="evenodd" clip-rule="evenodd" d="M26.0732 16.6669C27.3922 16.6704 27.7149 16.6833 28.4421 16.7178C29.3279 16.7569 29.9337 16.9001 30.4644 17.1053C31.018 17.3136 31.5228 17.6425 31.9397 18.0658C32.3664 18.4826 32.692 18.984 32.9037 19.544C33.1089 20.0715 33.2521 20.6804 33.2912 21.566C33.3247 22.3279 33.3319 22.6449 33.3333 24.1449L33.3334 25.4566C33.332 27.3076 33.321 27.6108 33.2847 28.4362C33.2457 29.3218 33.1023 29.9275 32.8972 30.4582C32.4641 31.5782 31.5783 32.4638 30.4579 32.8969C29.9304 33.1021 29.3214 33.2453 28.4356 33.2843C27.5465 33.3235 27.2632 33.3332 24.9998 33.3332L24.7648 33.3331C22.7154 33.3325 22.4213 33.3221 21.564 33.2843C20.6781 33.2453 20.0725 33.1021 19.5416 32.8969C18.988 32.6886 18.4832 32.3597 18.0663 31.9364C17.6429 31.5196 17.3141 31.0182 17.1024 30.4582C16.8972 29.9306 16.7538 29.3218 16.7148 28.4362C16.6827 27.706 16.6704 27.3845 16.667 26.0387L16.6671 23.9311C16.6707 22.6124 16.6836 22.2897 16.7181 21.5627C16.7572 20.6771 16.9004 20.0715 17.1056 19.5408C17.3141 18.9873 17.6429 18.4826 18.0663 18.0658C18.4832 17.6392 18.9847 17.3136 19.5449 17.102C20.0725 16.8969 20.6814 16.7536 21.5672 16.7145C22.2975 16.6825 22.6191 16.6701 23.9652 16.6667L26.0732 16.6669ZM25.8786 18.1805H24.1417C22.6936 18.1833 22.3912 18.1953 21.6421 18.2286C20.8313 18.2645 20.3883 18.4012 20.0952 18.5151C19.7337 18.6486 19.408 18.8602 19.1378 19.137C18.8577 19.4041 18.646 19.7328 18.5124 20.0943C18.3985 20.3873 18.2617 20.8269 18.226 21.6409C18.1897 22.4519 18.1787 22.7408 18.1773 24.5446V25.4706C18.1787 27.2739 18.1897 27.5604 18.226 28.3744C18.2617 29.1851 18.3985 29.6279 18.5124 29.921C18.646 30.2823 18.8577 30.6079 19.1345 30.8782C19.4015 31.155 19.7305 31.3666 20.0919 31.5001C20.385 31.6141 20.8247 31.7508 21.6388 31.7866C22.3852 31.8199 22.6895 31.8319 24.1382 31.8347H25.8742C27.3223 31.8319 27.6246 31.8199 28.3736 31.7866C29.1846 31.7508 29.6275 31.6141 29.9206 31.5001C30.6468 31.2201 31.2232 30.6438 31.5033 29.9177C31.6173 29.6246 31.7541 29.1851 31.79 28.3711C31.8247 27.5896 31.8363 27.297 31.8384 25.6797V24.3354C31.8363 22.7175 31.8247 22.4224 31.79 21.6409C31.7541 20.8301 31.6173 20.3873 31.5033 20.0943C31.3698 19.7328 31.1581 19.4072 30.8813 19.137C30.6143 18.8602 30.2853 18.6486 29.9239 18.5151C29.6308 18.4012 29.1911 18.2645 28.3769 18.2286C27.6306 18.1953 27.3287 18.1833 25.8786 18.1805ZM25.003 20.7194C27.3674 20.7194 29.2855 22.6372 29.2855 25.0011C29.2855 27.365 27.3674 29.2827 25.003 29.2827C22.6387 29.2827 20.7205 27.365 20.7205 25.0011C20.7205 22.6372 22.6387 20.7194 25.003 20.7194ZM25.003 22.2237C23.4692 22.2237 22.225 23.4675 22.225 25.0011C22.225 26.5347 23.4692 27.7785 25.003 27.7785C26.5369 27.7785 27.781 26.5347 27.781 25.0011C27.781 23.4675 26.5369 22.2237 25.003 22.2237ZM29.4548 19.5506C30.0071 19.5506 30.4547 19.998 30.4547 20.5501C30.4547 21.1021 30.0071 21.5497 29.4548 21.5497C28.9027 21.5497 28.4551 21.1021 28.4551 20.5501C28.4551 19.998 28.9027 19.5506 29.4548 19.5506Z" fill="white"/>
</g>
<defs>
<clipPath id="clip0_13643_1957">
<rect width="50" height="50" fill="white"/>
</clipPath>
</defs>
</svg>
