<svg width="65" height="19" viewBox="0 0 65 19" fill="none" xmlns="http://www.w3.org/2000/svg">
<path d="M0.721591 18V0.545454H3.88352V15.3494H11.571V18H0.721591ZM28.7322 9.27273C28.7322 11.1534 28.38 12.7642 27.6754 14.1051C26.9766 15.4403 26.022 16.4631 24.8118 17.1733C23.6072 17.8835 22.2408 18.2386 20.7124 18.2386C19.1839 18.2386 17.8146 17.8835 16.6044 17.1733C15.3999 16.4574 14.4453 15.4318 13.7408 14.0966C13.0419 12.7557 12.6925 11.1477 12.6925 9.27273C12.6925 7.39205 13.0419 5.78409 13.7408 4.44886C14.4453 3.10795 15.3999 2.08239 16.6044 1.37216C17.8146 0.661931 19.1839 0.306818 20.7124 0.306818C22.2408 0.306818 23.6072 0.661931 24.8118 1.37216C26.022 2.08239 26.9766 3.10795 27.6754 4.44886C28.38 5.78409 28.7322 7.39205 28.7322 9.27273ZM25.5533 9.27273C25.5533 7.94886 25.3459 6.83239 24.9311 5.92329C24.522 5.00852 23.9538 4.31818 23.2266 3.85227C22.4993 3.38068 21.6612 3.14489 20.7124 3.14489C19.7635 3.14489 18.9254 3.38068 18.1982 3.85227C17.4709 4.31818 16.8999 5.00852 16.4851 5.92329C16.076 6.83239 15.8714 7.94886 15.8714 9.27273C15.8714 10.5966 16.076 11.7159 16.4851 12.6307C16.8999 13.5398 17.4709 14.2301 18.1982 14.7017C18.9254 15.1676 19.7635 15.4006 20.7124 15.4006C21.6612 15.4006 22.4993 15.1676 23.2266 14.7017C23.9538 14.2301 24.522 13.5398 24.9311 12.6307C25.3459 11.7159 25.5533 10.5966 25.5533 9.27273ZM42.9148 6.11932C42.7727 5.65909 42.5767 5.24716 42.3267 4.88352C42.0824 4.5142 41.7869 4.19886 41.4403 3.9375C41.0994 3.67614 40.7074 3.48011 40.2642 3.34943C39.821 3.21307 39.3381 3.14489 38.8153 3.14489C37.8778 3.14489 37.0426 3.38068 36.3097 3.85227C35.5767 4.32386 35 5.01704 34.5795 5.93182C34.1648 6.84091 33.9574 7.94886 33.9574 9.25568C33.9574 10.5739 34.1648 11.6903 34.5795 12.6051C34.9943 13.5199 35.571 14.2159 36.3097 14.6932C37.0483 15.1648 37.9063 15.4006 38.8835 15.4006C39.7699 15.4006 40.5369 15.2301 41.1847 14.8892C41.8381 14.5483 42.3409 14.0653 42.6932 13.4403C43.0455 12.8097 43.2216 12.071 43.2216 11.2244L43.9375 11.3352H39.1989V8.86364H46.2812V10.9602C46.2812 12.4545 45.9631 13.7472 45.3267 14.8381C44.6903 15.929 43.8153 16.7699 42.7017 17.3608C41.5881 17.946 40.3097 18.2386 38.8665 18.2386C37.2585 18.2386 35.8466 17.8778 34.6307 17.1562C33.4205 16.429 32.4744 15.3977 31.7926 14.0625C31.1165 12.7216 30.7784 11.1307 30.7784 9.28977C30.7784 7.88068 30.9773 6.62216 31.375 5.5142C31.7784 4.40625 32.3409 3.46591 33.0625 2.69318C33.7841 1.91477 34.6307 1.32386 35.6023 0.920454C36.5739 0.511363 37.6307 0.306818 38.7727 0.306818C39.7386 0.306818 40.6392 0.448863 41.4744 0.732954C42.3097 1.01136 43.0511 1.40909 43.6989 1.92614C44.3523 2.44318 44.8892 3.05682 45.3097 3.76704C45.7301 4.47727 46.0057 5.26136 46.1364 6.11932H42.9148ZM64.4354 9.27273C64.4354 11.1534 64.0831 12.7642 63.3786 14.1051C62.6797 15.4403 61.7251 16.4631 60.5149 17.1733C59.3104 17.8835 57.9439 18.2386 56.4155 18.2386C54.8871 18.2386 53.5178 17.8835 52.3075 17.1733C51.103 16.4574 50.1484 15.4318 49.4439 14.0966C48.745 12.7557 48.3956 11.1477 48.3956 9.27273C48.3956 7.39205 48.745 5.78409 49.4439 4.44886C50.1484 3.10795 51.103 2.08239 52.3075 1.37216C53.5178 0.661931 54.8871 0.306818 56.4155 0.306818C57.9439 0.306818 59.3104 0.661931 60.5149 1.37216C61.7251 2.08239 62.6797 3.10795 63.3786 4.44886C64.0831 5.78409 64.4354 7.39205 64.4354 9.27273ZM61.2564 9.27273C61.2564 7.94886 61.049 6.83239 60.6342 5.92329C60.2251 5.00852 59.657 4.31818 58.9297 3.85227C58.2024 3.38068 57.3643 3.14489 56.4155 3.14489C55.4666 3.14489 54.6286 3.38068 53.9013 3.85227C53.174 4.31818 52.603 5.00852 52.1882 5.92329C51.7791 6.83239 51.5746 7.94886 51.5746 9.27273C51.5746 10.5966 51.7791 11.7159 52.1882 12.6307C52.603 13.5398 53.174 14.2301 53.9013 14.7017C54.6286 15.1676 55.4666 15.4006 56.4155 15.4006C57.3643 15.4006 58.2024 15.1676 58.9297 14.7017C59.657 14.2301 60.2251 13.5398 60.6342 12.6307C61.049 11.7159 61.2564 10.5966 61.2564 9.27273Z" fill="black"/>
</svg>
