<svg width="50" height="50" viewBox="0 0 50 50" fill="none" xmlns="http://www.w3.org/2000/svg">
<g clip-path="url(#clip0_13643_1961)">
<circle cx="25" cy="25" r="25" fill="" fill-opacity="0.2"/>
<path fill-rule="evenodd" clip-rule="evenodd" d="M33.3334 19.9117C32.7136 20.1794 32.0532 20.3568 31.3647 20.443C32.073 20.0266 32.6136 19.3722 32.8678 18.5835C32.2074 18.9712 31.4782 19.245 30.7011 19.3979C30.074 18.7404 29.1803 18.3333 28.2053 18.3333C26.3136 18.3333 24.7907 19.845 24.7907 21.6984C24.7907 21.965 24.8136 22.2215 24.8699 22.4656C22.0292 22.3291 19.5157 20.9886 17.8272 18.9466C17.5324 19.4502 17.3595 20.0266 17.3595 20.6471C17.3595 21.8122 17.9688 22.845 18.8772 23.443C18.3282 23.4327 17.7897 23.2758 17.3334 23.0286C17.3334 23.0389 17.3334 23.0522 17.3334 23.0656C17.3334 24.7004 18.5178 26.0584 20.0709 26.3712C19.7928 26.4461 19.4897 26.482 19.1751 26.482C18.9563 26.482 18.7355 26.4697 18.5282 26.4245C18.9709 27.7568 20.2272 28.7363 21.7209 28.7681C20.5584 29.6635 19.0824 30.203 17.4845 30.203C17.2042 30.203 16.9355 30.1907 16.6667 30.1568C18.1803 31.1179 19.974 31.6666 21.9084 31.6666C28.1959 31.6666 31.6334 26.5384 31.6334 22.0933C31.6334 21.9445 31.6282 21.8009 31.6209 21.6584C32.299 21.1845 32.8688 20.5927 33.3334 19.9117Z" fill="white"/>
</g>
<defs>
<clipPath id="clip0_13643_1961">
<rect width="50" height="50" fill="white"/>
</clipPath>
</defs>
</svg>
